<svg width="50" height="50" viewBox="0 0 50 50" fill="none" xmlns="http://www.w3.org/2000/svg">
<path d="M41.3925 8.38994L37.4361 5.58057C36.6441 6.46995 35.3139 6.64464 34.3216 5.93998L14.4965 35.3108C15.4888 36.0155 15.7976 37.354 15.2648 38.4274L19.2211 41.2368C20.0131 40.3474 21.3433 40.1727 22.3357 40.8774C23.328 41.582 23.6368 42.9206 23.104 43.9939L27.0603 46.8033C27.8523 45.9139 29.1825 45.7392 30.1749 46.4439L50 17.0729C49.0076 16.3683 48.6988 15.0297 49.2316 13.9564L45.2753 11.147C44.4833 12.0364 43.1531 12.2111 42.1608 11.5064C41.1685 10.8018 40.8597 9.46321 41.3925 8.38994Z" fill="#145AFF"/>
<path d="M29.4664 42.4954L43.0004 22.4438L31.8004 14.4912L18.2665 34.5428L29.4664 42.4954Z" fill="#8AADFF"/>
<path d="M32.7056 11.8223C32.5537 11.8223 32.4003 11.7766 32.266 11.6812L30.994 10.7779C30.6427 10.5285 30.5551 10.0342 30.7983 9.67392C31.0415 9.31359 31.5235 9.22376 31.8746 9.47321L33.1467 10.3765C33.498 10.6259 33.5856 11.1202 33.3424 11.4805C33.1921 11.703 32.9509 11.8223 32.7056 11.8223Z" fill="#8AADFF"/>
<path d="M43.2131 19.2836C43.0612 19.2836 42.9078 19.2378 42.7735 19.1425L40.1466 17.2771C39.7953 17.0277 39.7077 16.5334 39.9509 16.1732C40.1941 15.8129 40.676 15.7231 41.0273 15.9725L43.6542 17.8379C44.0055 18.0873 44.0931 18.5816 43.8499 18.9418C43.6996 19.1642 43.4584 19.2836 43.2131 19.2836ZM37.9594 15.5529C37.8075 15.5529 37.6541 15.5071 37.5198 15.4117L34.8929 13.5464C34.5416 13.2969 34.454 12.8026 34.6972 12.4425C34.9404 12.0821 35.4224 11.9923 35.7736 12.2418L38.4005 14.1071C38.7518 14.3566 38.8393 14.8509 38.5961 15.2111C38.4459 15.4335 38.2047 15.5529 37.9594 15.5529Z" fill="#8AADFF"/>
<path d="M47.112 22.0523C46.96 22.0523 46.8067 22.0065 46.6724 21.9112L45.4003 21.0079C45.049 20.7584 44.9615 20.2641 45.2047 19.9039C45.4479 19.5436 45.9299 19.4537 46.281 19.7032L47.553 20.6065C47.9043 20.8559 47.9919 21.3502 47.7487 21.7104C47.5986 21.9328 47.3573 22.0523 47.112 22.0523Z" fill="#8AADFF"/>
<path opacity="0.1" d="M32.161 40.2598L30.0992 12.1247L27.1083 16.584L26.1806 5.85729L17.4595 33.1445C18.581 33.6022 19.1754 34.8351 18.8917 36.0039L23.3628 37.8284C23.9394 36.7791 25.1973 36.302 26.3187 36.7596C24.4325 42.2814 28.5417 40.8123 27.1083 45.1981L32.161 40.2598Z" fill="black"/>
<path d="M14.2304 6.1781L9.55731 7.35488C9.68171 8.55252 8.92765 9.6901 7.75557 9.98522L16.0598 44.678C17.2318 44.3829 18.4139 45.0328 18.8444 46.1535L23.5176 44.9767C23.3932 43.7791 24.1472 42.6415 25.3193 42.3464C26.4914 42.0512 27.6734 42.7011 28.104 43.8218L32.7771 42.645C32.6527 41.4474 33.4068 40.3098 34.5788 40.0147L26.2745 5.32208C25.1025 5.61728 23.9204 4.96732 23.4899 3.84662L18.8168 5.02335C18.9412 6.22099 18.1871 7.35857 17.0151 7.65369C15.8428 7.94868 14.661 7.29881 14.2304 6.1781Z" fill="#1EBD53"/>
<path d="M10.819 15.3666C10.767 15.3938 10.7109 15.4154 10.6516 15.4304L9.14912 15.8087C8.73424 15.9133 8.31529 15.653 8.21351 15.2274C8.11162 14.8019 8.36534 14.3721 8.78031 14.2677L10.2828 13.8894C10.6977 13.7848 11.1166 14.0451 11.2184 14.4707C11.3058 14.8352 11.1317 15.2032 10.819 15.3666Z" fill="#92E0AC"/>
<path d="M23.2304 12.2412C23.1783 12.2684 23.1223 12.29 23.063 12.305L19.9601 13.0863C19.5452 13.1909 19.1263 12.9306 19.0245 12.505C18.9226 12.0795 19.1761 11.6498 19.5913 11.5453L22.6942 10.764C23.1091 10.6595 23.528 10.9197 23.6298 11.3454C23.7172 11.71 23.5432 12.0778 23.2304 12.2412ZM17.0248 13.804C16.9727 13.8312 16.9167 13.8527 16.8574 13.8677L13.7545 14.649C13.3396 14.7536 12.9206 14.4933 12.8189 14.0677C12.7169 13.6421 12.9705 13.2125 13.3857 13.1081L16.4886 12.3267C16.9034 12.2222 17.3224 12.4825 17.4242 12.9081C17.5115 13.2727 17.3376 13.6405 17.0248 13.804Z" fill="#92E0AC"/>
<path d="M27.8358 11.0815C27.7837 11.1087 27.7276 11.1302 27.6683 11.1452L26.1658 11.5235C25.751 11.6281 25.332 11.3678 25.2302 10.9422C25.1283 10.5167 25.3821 10.0869 25.797 9.98256L27.2995 9.60423C27.7144 9.49968 28.1334 9.75996 28.2351 10.1856C28.3225 10.5502 28.1485 10.918 27.8358 11.0815Z" fill="#92E0AC"/>
<path d="M31.2955 38.0023L25.6276 14.3174L12.3982 17.6479L18.0662 41.3329L31.2955 38.0023Z" fill="#92E0AC"/>
</svg>
